<svg width="18" height="18" viewBox="0 0 18 18" fill="none" xmlns="http://www.w3.org/2000/svg">
<path d="M7.53223 14.5332C8.92969 14.5332 10.2393 14.1113 11.3291 13.3906L15.1787 17.249C15.4336 17.4951 15.7588 17.6182 16.1104 17.6182C16.8398 17.6182 17.376 17.0469 17.376 16.3262C17.376 15.9922 17.2617 15.667 17.0156 15.4209L13.1924 11.5801C13.9834 10.4551 14.4492 9.09277 14.4492 7.61621C14.4492 3.81055 11.3379 0.699219 7.53223 0.699219C3.73535 0.699219 0.615234 3.81055 0.615234 7.61621C0.615234 11.4219 3.72656 14.5332 7.53223 14.5332ZM7.53223 12.6875C4.74609 12.6875 2.46094 10.4023 2.46094 7.61621C2.46094 4.83008 4.74609 2.54492 7.53223 2.54492C10.3184 2.54492 12.6035 4.83008 12.6035 7.61621C12.6035 10.4023 10.3184 12.6875 7.53223 12.6875Z" fill="#296AC1"/>
</svg>
